<mxfile host="acee7565-fe71-42f7-95cb-c17de7af998c" modified="2020-07-26T02:18:32.767Z" agent="5.0 (Macintosh; Intel Mac OS X 10_15_5) AppleWebKit/537.36 (KHTML, like Gecko) Code/1.47.0 Chrome/78.0.3904.130 Electron/7.3.2 Safari/537.36" etag="aqOVDsFBh1hRMeTkso7_" version="13.1.3">
    <diagram id="6hGFLwfOUW9BJ-s0fimq" name="Page-1">
        <mxGraphModel dx="206" dy="146" grid="1" gridSize="10" guides="1" tooltips="1" connect="1" arrows="1" fold="1" page="1" pageScale="1" pageWidth="827" pageHeight="1169" math="0" shadow="0">
            <root>
                <mxCell id="0"/>
                <mxCell id="1" parent="0"/>
                <mxCell id="24" value="" style="group" vertex="1" connectable="0" parent="1">
                    <mxGeometry x="570" y="954" width="236.25" height="190" as="geometry"/>
                </mxCell>
                <mxCell id="7" value="" style="html=1;verticalLabelPosition=bottom;align=center;labelBackgroundColor=#ffffff;verticalAlign=top;strokeWidth=2;strokeColor=#0080F0;shadow=0;dashed=0;shape=mxgraph.ios7.icons.folder;" vertex="1" parent="24">
                    <mxGeometry width="236.25" height="190" as="geometry"/>
                </mxCell>
                <mxCell id="2" value="" style="verticalLabelPosition=bottom;html=1;verticalAlign=top;align=center;strokeColor=none;fillColor=#00BEF2;shape=mxgraph.azure.git_repository;" vertex="1" parent="24">
                    <mxGeometry x="6.25" y="75" width="25" height="25" as="geometry"/>
                </mxCell>
                <mxCell id="5" value="" style="verticalLabelPosition=bottom;html=1;verticalAlign=top;align=center;strokeColor=none;fillColor=#00BEF2;shape=mxgraph.azure.code_file;pointerEvents=1;" vertex="1" parent="24">
                    <mxGeometry x="10.350000000000001" y="161" width="20.9" height="22" as="geometry"/>
                </mxCell>
                <mxCell id="8" value="" style="html=1;verticalLabelPosition=bottom;align=center;labelBackgroundColor=#ffffff;verticalAlign=top;strokeWidth=2;strokeColor=#0080F0;shadow=0;dashed=0;shape=mxgraph.ios7.icons.settings;" vertex="1" parent="24">
                    <mxGeometry x="7.25" y="39" width="24" height="24" as="geometry"/>
                </mxCell>
                <mxCell id="14" value="Configuation files" style="text;html=1;strokeColor=none;fillColor=none;align=left;verticalAlign=middle;whiteSpace=wrap;rounded=0;" vertex="1" parent="24">
                    <mxGeometry x="46.25" y="41" width="160" height="20" as="geometry"/>
                </mxCell>
                <mxCell id="15" value=".git (hidden)" style="text;html=1;strokeColor=none;fillColor=none;align=left;verticalAlign=middle;whiteSpace=wrap;rounded=0;" vertex="1" parent="24">
                    <mxGeometry x="46.25" y="77.5" width="160" height="20" as="geometry"/>
                </mxCell>
                <mxCell id="16" value="Tooling" style="text;html=1;strokeColor=none;fillColor=none;align=left;verticalAlign=middle;whiteSpace=wrap;rounded=0;" vertex="1" parent="24">
                    <mxGeometry x="46.25" y="119.25" width="160" height="20" as="geometry"/>
                </mxCell>
                <mxCell id="17" value="Application Code" style="text;html=1;strokeColor=none;fillColor=none;align=left;verticalAlign=middle;whiteSpace=wrap;rounded=0;" vertex="1" parent="24">
                    <mxGeometry x="46.25" y="162" width="160" height="20" as="geometry"/>
                </mxCell>
                <mxCell id="18" value="" style="verticalLabelPosition=bottom;html=1;verticalAlign=top;align=center;strokeColor=none;fillColor=#00BEF2;shape=mxgraph.azure.automation;pointerEvents=1;" vertex="1" parent="24">
                    <mxGeometry x="1.9200000000000017" y="116.5" width="28.33" height="25.5" as="geometry"/>
                </mxCell>
                <mxCell id="143" style="edgeStyle=orthogonalEdgeStyle;rounded=0;orthogonalLoop=1;jettySize=auto;html=1;" edge="1" parent="1" source="29" target="35">
                    <mxGeometry relative="1" as="geometry"/>
                </mxCell>
                <mxCell id="114" style="edgeStyle=orthogonalEdgeStyle;rounded=0;orthogonalLoop=1;jettySize=auto;html=1;exitX=0.92;exitY=0.5;exitDx=0;exitDy=0;exitPerimeter=0;entryX=0;entryY=0.5;entryDx=0;entryDy=0;entryPerimeter=0;" edge="1" parent="1" source="35" target="157">
                    <mxGeometry relative="1" as="geometry">
                        <mxPoint x="465" y="145" as="targetPoint"/>
                    </mxGeometry>
                </mxCell>
                <mxCell id="35" value="" style="verticalLabelPosition=bottom;html=1;verticalAlign=top;align=center;strokeColor=none;fillColor=#00BEF2;shape=mxgraph.azure.laptop;pointerEvents=1;" vertex="1" parent="1">
                    <mxGeometry x="429.53" y="137.92" width="50" height="30" as="geometry"/>
                </mxCell>
                <mxCell id="60" value="&lt;font size=&quot;1&quot;&gt;&lt;b&gt;&lt;u style=&quot;font-size: 20px&quot;&gt;Getting The Code&lt;/u&gt;&lt;/b&gt;&lt;/font&gt;" style="text;html=1;strokeColor=none;fillColor=none;align=left;verticalAlign=middle;whiteSpace=wrap;rounded=0;" vertex="1" parent="1">
                    <mxGeometry x="40" y="80" width="280" height="20" as="geometry"/>
                </mxCell>
                <mxCell id="61" value="&lt;font size=&quot;1&quot;&gt;&lt;b&gt;&lt;u style=&quot;font-size: 20px&quot;&gt;Submitting Code&lt;/u&gt;&lt;/b&gt;&lt;/font&gt;" style="text;html=1;strokeColor=none;fillColor=none;align=left;verticalAlign=middle;whiteSpace=wrap;rounded=0;" vertex="1" parent="1">
                    <mxGeometry x="37.82" y="600" width="280" height="20" as="geometry"/>
                </mxCell>
                <mxCell id="64" value="" style="group" vertex="1" connectable="0" parent="1">
                    <mxGeometry x="260" y="873.75" width="50" height="75" as="geometry"/>
                </mxCell>
                <mxCell id="65" value="" style="group" vertex="1" connectable="0" parent="64">
                    <mxGeometry width="50" height="50" as="geometry"/>
                </mxCell>
                <mxCell id="66" value="" style="group" vertex="1" connectable="0" parent="65">
                    <mxGeometry width="50" height="50" as="geometry"/>
                </mxCell>
                <mxCell id="67" value="" style="ellipse;whiteSpace=wrap;html=1;aspect=fixed;strokeColor=#00BEF2;fillColor=none;strokeWidth=2;" vertex="1" parent="66">
                    <mxGeometry width="50" height="50" as="geometry"/>
                </mxCell>
                <mxCell id="68" value="" style="dashed=0;aspect=fixed;verticalLabelPosition=bottom;verticalAlign=top;align=center;shape=mxgraph.gmdl.edit;strokeColor=none;fillColor=#00BEF2;shadow=0;" vertex="1" parent="66">
                    <mxGeometry x="8.333333333333371" y="8.333333333333343" width="33.333333333333336" height="33.333333333333336" as="geometry"/>
                </mxCell>
                <mxCell id="69" value="Edit&lt;br&gt;Code" style="text;html=1;strokeColor=none;fillColor=none;align=center;verticalAlign=middle;whiteSpace=wrap;rounded=0;" vertex="1" parent="64">
                    <mxGeometry x="5" y="55" width="40" height="20" as="geometry"/>
                </mxCell>
                <mxCell id="74" value="" style="group" vertex="1" connectable="0" parent="1">
                    <mxGeometry x="320" y="882.5" width="58.34" height="80" as="geometry"/>
                </mxCell>
                <mxCell id="72" value="" style="triangle;whiteSpace=wrap;html=1;strokeColor=#00BEF2;fillColor=none;direction=north;strokeWidth=2;" vertex="1" parent="74">
                    <mxGeometry width="58.34" height="55" as="geometry"/>
                </mxCell>
                <mxCell id="71" value="" style="html=1;aspect=fixed;strokeColor=#00BEF2;shadow=0;align=center;verticalAlign=top;fillColor=#1ba1e2;shape=mxgraph.gcp2.biomedical_test_tube;fontColor=#ffffff;" vertex="1" parent="74">
                    <mxGeometry x="22.919999999999987" y="15" width="10.85" height="35" as="geometry"/>
                </mxCell>
                <mxCell id="73" value="Run&lt;br&gt;Tests" style="text;html=1;strokeColor=none;fillColor=none;align=center;verticalAlign=middle;whiteSpace=wrap;rounded=0;" vertex="1" parent="74">
                    <mxGeometry x="9.170000000000016" y="60" width="40" height="20" as="geometry"/>
                </mxCell>
                <mxCell id="83" value="" style="group" vertex="1" connectable="0" parent="1">
                    <mxGeometry x="408.53" y="876.25" width="55" height="72.5" as="geometry"/>
                </mxCell>
                <mxCell id="80" value="" style="verticalLabelPosition=bottom;html=1;verticalAlign=top;align=center;strokeColor=none;fillColor=#00BEF2;shape=mxgraph.azure.git_repository;" vertex="1" parent="83">
                    <mxGeometry x="2.5" width="50" height="50" as="geometry"/>
                </mxCell>
                <mxCell id="82" value="Commit" style="text;html=1;strokeColor=none;fillColor=none;align=center;verticalAlign=middle;whiteSpace=wrap;rounded=0;" vertex="1" parent="83">
                    <mxGeometry y="52.5" width="55" height="20" as="geometry"/>
                </mxCell>
                <mxCell id="87" style="edgeStyle=orthogonalEdgeStyle;rounded=0;orthogonalLoop=1;jettySize=auto;html=1;exitX=0.5;exitY=1;exitDx=0;exitDy=0;entryX=0.5;entryY=1;entryDx=0;entryDy=0;" edge="1" parent="1" source="82" target="99">
                    <mxGeometry relative="1" as="geometry">
                        <Array as="points">
                            <mxPoint x="446" y="919"/>
                            <mxPoint x="229" y="919"/>
                        </Array>
                    </mxGeometry>
                </mxCell>
                <mxCell id="91" style="edgeStyle=orthogonalEdgeStyle;rounded=0;orthogonalLoop=1;jettySize=auto;html=1;entryX=0;entryY=0.5;entryDx=0;entryDy=0;entryPerimeter=0;" edge="1" parent="1" source="88" target="90">
                    <mxGeometry relative="1" as="geometry"/>
                </mxCell>
                <mxCell id="92" value="Review&lt;br&gt;Changes" style="edgeLabel;html=1;align=center;verticalAlign=middle;resizable=0;points=[];" vertex="1" connectable="0" parent="91">
                    <mxGeometry x="-0.2148" y="-2" relative="1" as="geometry">
                        <mxPoint as="offset"/>
                    </mxGeometry>
                </mxCell>
                <mxCell id="88" value="Push&lt;br&gt;Code" style="html=1;verticalLabelPosition=bottom;align=center;labelBackgroundColor=none;verticalAlign=top;strokeWidth=2;strokeColor=#00BEF2;shadow=0;dashed=0;shape=mxgraph.ios7.icons.up;fillColor=none;" vertex="1" parent="1">
                    <mxGeometry x="490" y="873.96" width="41" height="49.79" as="geometry"/>
                </mxCell>
                <mxCell id="94" style="edgeStyle=orthogonalEdgeStyle;rounded=0;orthogonalLoop=1;jettySize=auto;html=1;entryX=0;entryY=0.5;entryDx=0;entryDy=0;entryPerimeter=0;" edge="1" parent="1" source="90" target="93">
                    <mxGeometry relative="1" as="geometry"/>
                </mxCell>
                <mxCell id="95" value="Submit&lt;br&gt;Code" style="edgeLabel;html=1;align=center;verticalAlign=middle;resizable=0;points=[];" vertex="1" connectable="0" parent="94">
                    <mxGeometry x="-0.1841" y="-1" relative="1" as="geometry">
                        <mxPoint as="offset"/>
                    </mxGeometry>
                </mxCell>
                <mxCell id="90" value="Your&lt;br&gt;GitHub" style="verticalLabelPosition=bottom;html=1;verticalAlign=top;align=center;strokeColor=none;fillColor=#00BEF2;shape=mxgraph.azure.github_code;pointerEvents=1;" vertex="1" parent="1">
                    <mxGeometry x="620" y="870" width="50" height="50" as="geometry"/>
                </mxCell>
                <mxCell id="93" value="GitHub&lt;br&gt;Source&lt;br&gt;" style="verticalLabelPosition=bottom;html=1;verticalAlign=top;align=center;strokeColor=none;fillColor=#00BEF2;shape=mxgraph.azure.github_code;pointerEvents=1;" vertex="1" parent="1">
                    <mxGeometry x="730" y="870" width="50" height="50" as="geometry"/>
                </mxCell>
                <mxCell id="96" value="" style="group" vertex="1" connectable="0" parent="1">
                    <mxGeometry x="190" y="882.5" width="58.34" height="80" as="geometry"/>
                </mxCell>
                <mxCell id="97" value="" style="triangle;whiteSpace=wrap;html=1;strokeColor=#00BEF2;fillColor=none;direction=north;strokeWidth=2;" vertex="1" parent="96">
                    <mxGeometry width="58.34" height="55" as="geometry"/>
                </mxCell>
                <mxCell id="98" value="" style="html=1;aspect=fixed;strokeColor=#00BEF2;shadow=0;align=center;verticalAlign=top;fillColor=#1ba1e2;shape=mxgraph.gcp2.biomedical_test_tube;fontColor=#ffffff;" vertex="1" parent="96">
                    <mxGeometry x="22.92" y="15" width="10.85" height="35" as="geometry"/>
                </mxCell>
                <mxCell id="99" value="Write&lt;br&gt;Tests" style="text;html=1;strokeColor=none;fillColor=none;align=center;verticalAlign=middle;whiteSpace=wrap;rounded=0;" vertex="1" parent="96">
                    <mxGeometry x="9.170000000000016" y="60" width="40" height="20" as="geometry"/>
                </mxCell>
                <mxCell id="100" style="edgeStyle=orthogonalEdgeStyle;rounded=0;orthogonalLoop=1;jettySize=auto;html=1;entryX=0;entryY=0.5;entryDx=0;entryDy=0;" edge="1" parent="1" source="97" target="67">
                    <mxGeometry relative="1" as="geometry">
                        <Array as="points">
                            <mxPoint x="240" y="910.5"/>
                            <mxPoint x="240" y="898.5"/>
                        </Array>
                    </mxGeometry>
                </mxCell>
                <mxCell id="101" style="edgeStyle=orthogonalEdgeStyle;rounded=0;orthogonalLoop=1;jettySize=auto;html=1;entryX=0.5;entryY=1;entryDx=0;entryDy=0;exitX=0.5;exitY=1;exitDx=0;exitDy=0;" edge="1" parent="1" source="73" target="69">
                    <mxGeometry relative="1" as="geometry"/>
                </mxCell>
                <mxCell id="103" style="edgeStyle=orthogonalEdgeStyle;rounded=0;orthogonalLoop=1;jettySize=auto;html=1;entryX=0.456;entryY=0.24;entryDx=0;entryDy=0;entryPerimeter=0;exitX=1;exitY=0.4;exitDx=0;exitDy=0;exitPerimeter=0;" edge="1" parent="1" source="67" target="72">
                    <mxGeometry relative="1" as="geometry">
                        <mxPoint x="320" y="852.5" as="sourcePoint"/>
                        <Array as="points">
                            <mxPoint x="320" y="893.5"/>
                            <mxPoint x="320" y="912.5"/>
                        </Array>
                    </mxGeometry>
                </mxCell>
                <mxCell id="215" style="edgeStyle=orthogonalEdgeStyle;rounded=0;orthogonalLoop=1;jettySize=auto;html=1;entryX=-0.103;entryY=0.625;entryDx=0;entryDy=0;entryPerimeter=0;" edge="1" parent="1" source="107" target="212">
                    <mxGeometry relative="1" as="geometry"/>
                </mxCell>
                <mxCell id="107" value="&lt;font color=&quot;#ffffff&quot;&gt;Pickup&lt;br&gt;Issue&lt;/font&gt;" style="outlineConnect=0;fontColor=#232F3E;gradientColor=none;fillColor=#00BEF2;strokeColor=none;dashed=0;verticalLabelPosition=bottom;verticalAlign=top;align=center;html=1;fontSize=12;fontStyle=0;aspect=fixed;pointerEvents=1;shape=mxgraph.aws4.ecs_task;" vertex="1" parent="1">
                    <mxGeometry x="40.18000000000011" y="445" width="37.82" height="50" as="geometry"/>
                </mxCell>
                <mxCell id="112" value="" style="group" vertex="1" connectable="0" parent="1">
                    <mxGeometry x="628.3299999999999" y="140.42" width="33.33" height="50" as="geometry"/>
                </mxCell>
                <mxCell id="110" value="" style="ellipse;whiteSpace=wrap;html=1;aspect=fixed;strokeColor=#00BEF2;strokeWidth=2;fillColor=#2A2A2A;" vertex="1" parent="112">
                    <mxGeometry y="-6.66" width="33.33" height="33.33" as="geometry"/>
                </mxCell>
                <mxCell id="109" value="" style="html=1;verticalLabelPosition=bottom;align=center;labelBackgroundColor=#ffffff;verticalAlign=top;strokeWidth=2;strokeColor=#00BEF2;shadow=0;dashed=0;shape=mxgraph.ios7.icons.pause;pointerEvents=1;fillColor=#2A2A2A;" vertex="1" parent="112">
                    <mxGeometry x="10.420000000000098" y="0.006666666666666821" width="12.49875" height="20" as="geometry"/>
                </mxCell>
                <mxCell id="111" value="Pause" style="text;html=1;strokeColor=none;fillColor=none;align=center;verticalAlign=middle;whiteSpace=wrap;rounded=0;" vertex="1" parent="112">
                    <mxGeometry y="26.673333333333336" width="33.33" height="16.666666666666668" as="geometry"/>
                </mxCell>
                <mxCell id="115" value="Break Time" style="shape=mxgraph.signs.food.coffee;html=1;fillColor=#00BEF2;strokeColor=none;verticalLabelPosition=bottom;verticalAlign=top;align=center;" vertex="1" parent="1">
                    <mxGeometry x="729.9999999999999" y="135.42" width="38.53" height="30" as="geometry"/>
                </mxCell>
                <mxCell id="117" style="edgeStyle=orthogonalEdgeStyle;rounded=0;orthogonalLoop=1;jettySize=auto;html=1;" edge="1" parent="1" source="110" target="115">
                    <mxGeometry relative="1" as="geometry"/>
                </mxCell>
                <mxCell id="119" value="" style="group" vertex="1" connectable="0" parent="1">
                    <mxGeometry x="222.6" y="445" width="55" height="72.5" as="geometry"/>
                </mxCell>
                <mxCell id="120" value="" style="verticalLabelPosition=bottom;html=1;verticalAlign=top;align=center;strokeColor=none;fillColor=#00BEF2;shape=mxgraph.azure.git_repository;" vertex="1" parent="119">
                    <mxGeometry x="2.5" width="50" height="50" as="geometry"/>
                </mxCell>
                <mxCell id="121" value="Branch" style="text;html=1;strokeColor=none;fillColor=none;align=center;verticalAlign=middle;whiteSpace=wrap;rounded=0;" vertex="1" parent="119">
                    <mxGeometry y="52.5" width="55" height="20" as="geometry"/>
                </mxCell>
                <mxCell id="137" style="edgeStyle=orthogonalEdgeStyle;rounded=0;orthogonalLoop=1;jettySize=auto;html=1;entryX=0.5;entryY=0;entryDx=0;entryDy=0;" edge="1" parent="1" source="125" target="97">
                    <mxGeometry relative="1" as="geometry">
                        <Array as="points">
                            <mxPoint x="190" y="885.5"/>
                            <mxPoint x="190" y="909.5"/>
                        </Array>
                    </mxGeometry>
                </mxCell>
                <mxCell id="125" value="Goto&lt;br&gt;Branch" style="whiteSpace=wrap;html=1;shape=partialRectangle;top=0;left=0;bottom=1;right=0;points=[[0,1],[1,1]];fillColor=none;align=center;verticalAlign=bottom;routingCenterY=0.5;snapToPoint=1;recursiveResize=0;autosize=1;treeFolding=1;treeMoving=1;newEdgeStyle={&quot;edgeStyle&quot;:&quot;entityRelationEdgeStyle&quot;,&quot;startArrow&quot;:&quot;none&quot;,&quot;endArrow&quot;:&quot;none&quot;,&quot;segment&quot;:10,&quot;curved&quot;:1};strokeColor=#00BEF2;" vertex="1" collapsed="1" parent="1">
                    <mxGeometry x="112.82" y="870" width="70" height="30" as="geometry"/>
                </mxCell>
                <mxCell id="126" value="" style="edgeStyle=entityRelationEdgeStyle;startArrow=none;endArrow=none;segment=10;curved=1;exitX=1;exitY=0.5;exitDx=0;exitDy=0;exitPerimeter=0;" edge="1" source="130" target="125" parent="1">
                    <mxGeometry relative="1" as="geometry">
                        <mxPoint x="40" y="927.5" as="sourcePoint"/>
                    </mxGeometry>
                </mxCell>
                <mxCell id="127" style="edgeStyle=orthogonalEdgeStyle;rounded=0;orthogonalLoop=1;jettySize=auto;html=1;entryX=0.5;entryY=0;entryDx=0;entryDy=0;entryPerimeter=0;" edge="1" source="128" target="130" parent="1">
                    <mxGeometry relative="1" as="geometry"/>
                </mxCell>
                <mxCell id="128" value="&lt;font color=&quot;#ffffff&quot;&gt;Pickup&lt;br&gt;Issue&lt;/font&gt;" style="outlineConnect=0;fontColor=#232F3E;gradientColor=none;fillColor=#00BEF2;strokeColor=none;dashed=0;verticalLabelPosition=bottom;verticalAlign=top;align=center;html=1;fontSize=12;fontStyle=0;aspect=fixed;pointerEvents=1;shape=mxgraph.aws4.ecs_task;" vertex="1" parent="1">
                    <mxGeometry x="1.1368683772161603e-13" y="873.75" width="37.82" height="50" as="geometry"/>
                </mxCell>
                <mxCell id="129" value="" style="group" vertex="1" connectable="0" parent="1">
                    <mxGeometry x="57.81999999999999" y="910" width="55" height="72.5" as="geometry"/>
                </mxCell>
                <mxCell id="130" value="" style="verticalLabelPosition=bottom;html=1;verticalAlign=top;align=center;strokeColor=none;fillColor=#00BEF2;shape=mxgraph.azure.git_repository;" vertex="1" parent="129">
                    <mxGeometry x="2.5" width="50" height="50" as="geometry"/>
                </mxCell>
                <mxCell id="131" value="Branch" style="text;html=1;strokeColor=none;fillColor=none;align=center;verticalAlign=middle;whiteSpace=wrap;rounded=0;" vertex="1" parent="129">
                    <mxGeometry y="52.5" width="55" height="20" as="geometry"/>
                </mxCell>
                <mxCell id="133" style="edgeStyle=orthogonalEdgeStyle;rounded=0;orthogonalLoop=1;jettySize=auto;html=1;entryX=0;entryY=0.544;entryDx=0;entryDy=0;entryPerimeter=0;" edge="1" parent="1" source="80" target="88">
                    <mxGeometry relative="1" as="geometry"/>
                </mxCell>
                <mxCell id="134" style="edgeStyle=orthogonalEdgeStyle;rounded=0;orthogonalLoop=1;jettySize=auto;html=1;entryX=0;entryY=0.5;entryDx=0;entryDy=0;entryPerimeter=0;" edge="1" parent="1" source="72" target="80">
                    <mxGeometry relative="1" as="geometry">
                        <Array as="points">
                            <mxPoint x="380" y="909.5"/>
                            <mxPoint x="380" y="901.5"/>
                        </Array>
                    </mxGeometry>
                </mxCell>
                <mxCell id="145" value="" style="group" vertex="1" connectable="0" parent="1">
                    <mxGeometry x="37.82" y="127.92" width="49.99999999999999" height="75" as="geometry"/>
                </mxCell>
                <mxCell id="19" value="" style="verticalLabelPosition=bottom;html=1;verticalAlign=top;align=center;strokeColor=none;fillColor=#00BEF2;shape=mxgraph.azure.github_code;pointerEvents=1;" vertex="1" parent="145">
                    <mxGeometry width="50" height="50" as="geometry"/>
                </mxCell>
                <mxCell id="144" value="&lt;span&gt;GitHub&lt;/span&gt;&lt;br&gt;&lt;span&gt;Source&lt;/span&gt;" style="text;html=1;strokeColor=none;fillColor=none;align=center;verticalAlign=middle;whiteSpace=wrap;rounded=0;labelBackgroundColor=none;" vertex="1" parent="145">
                    <mxGeometry x="4.999999999999993" y="55" width="40" height="20" as="geometry"/>
                </mxCell>
                <mxCell id="146" value="" style="group" vertex="1" connectable="0" parent="1">
                    <mxGeometry x="229.99999999999997" y="127.91999999999999" width="50" height="75" as="geometry"/>
                </mxCell>
                <mxCell id="147" value="" style="verticalLabelPosition=bottom;html=1;verticalAlign=top;align=center;strokeColor=none;fillColor=#00BEF2;shape=mxgraph.azure.github_code;pointerEvents=1;" vertex="1" parent="146">
                    <mxGeometry x="7.105427357601002e-15" width="50.000000000000014" height="50" as="geometry"/>
                </mxCell>
                <mxCell id="148" value="Your&lt;br&gt;Copy" style="text;html=1;strokeColor=none;fillColor=none;align=center;verticalAlign=middle;whiteSpace=wrap;rounded=0;labelBackgroundColor=none;" vertex="1" parent="146">
                    <mxGeometry x="5.000000000000057" y="53.75" width="40.00000000000001" height="20" as="geometry"/>
                </mxCell>
                <mxCell id="150" value="" style="group" vertex="1" connectable="0" parent="1">
                    <mxGeometry x="132.82" y="127.92" width="55" height="72.5" as="geometry"/>
                </mxCell>
                <mxCell id="151" value="" style="verticalLabelPosition=bottom;html=1;verticalAlign=top;align=center;strokeColor=none;fillColor=#00BEF2;shape=mxgraph.azure.git_repository;" vertex="1" parent="150">
                    <mxGeometry x="2.5" width="50" height="50" as="geometry"/>
                </mxCell>
                <mxCell id="152" value="Fork" style="text;html=1;strokeColor=none;fillColor=none;align=center;verticalAlign=middle;whiteSpace=wrap;rounded=0;" vertex="1" parent="150">
                    <mxGeometry y="52.5" width="55" height="20" as="geometry"/>
                </mxCell>
                <mxCell id="153" style="edgeStyle=orthogonalEdgeStyle;rounded=0;orthogonalLoop=1;jettySize=auto;html=1;exitX=1;exitY=0.5;exitDx=0;exitDy=0;exitPerimeter=0;" edge="1" parent="1" source="19" target="151">
                    <mxGeometry relative="1" as="geometry"/>
                </mxCell>
                <mxCell id="154" style="edgeStyle=orthogonalEdgeStyle;rounded=0;orthogonalLoop=1;jettySize=auto;html=1;exitX=1;exitY=0.5;exitDx=0;exitDy=0;exitPerimeter=0;entryX=0;entryY=0.5;entryDx=0;entryDy=0;entryPerimeter=0;" edge="1" parent="1" source="151" target="147">
                    <mxGeometry relative="1" as="geometry">
                        <mxPoint x="200" y="160" as="targetPoint"/>
                    </mxGeometry>
                </mxCell>
                <mxCell id="156" style="edgeStyle=orthogonalEdgeStyle;rounded=0;orthogonalLoop=1;jettySize=auto;html=1;exitX=1;exitY=0.5;exitDx=0;exitDy=0;exitPerimeter=0;" edge="1" parent="1" source="147" target="29">
                    <mxGeometry relative="1" as="geometry"/>
                </mxCell>
                <mxCell id="164" style="edgeStyle=orthogonalEdgeStyle;rounded=0;orthogonalLoop=1;jettySize=auto;html=1;exitX=1;exitY=0.438;exitDx=0;exitDy=0;exitPerimeter=0;entryX=0;entryY=0.5;entryDx=0;entryDy=0;" edge="1" parent="1" source="157" target="110">
                    <mxGeometry relative="1" as="geometry"/>
                </mxCell>
                <mxCell id="157" value="Read&lt;br&gt;the&lt;br&gt;Code" style="verticalLabelPosition=bottom;html=1;verticalAlign=top;align=center;strokeColor=none;fillColor=#00BEF2;shape=mxgraph.azure.code_file;pointerEvents=1;labelBackgroundColor=none;" vertex="1" parent="1">
                    <mxGeometry x="526" y="132.92000000000002" width="38" height="40" as="geometry"/>
                </mxCell>
                <mxCell id="165" value="&lt;font size=&quot;1&quot;&gt;&lt;b&gt;&lt;u style=&quot;font-size: 20px&quot;&gt;Running the Code&lt;/u&gt;&lt;/b&gt;&lt;/font&gt;" style="text;html=1;strokeColor=none;fillColor=none;align=left;verticalAlign=middle;whiteSpace=wrap;rounded=0;" vertex="1" parent="1">
                    <mxGeometry x="40" y="240" width="280" height="20" as="geometry"/>
                </mxCell>
                <mxCell id="177" style="edgeStyle=orthogonalEdgeStyle;rounded=0;orthogonalLoop=1;jettySize=auto;html=1;" edge="1" parent="1" source="167" target="176">
                    <mxGeometry relative="1" as="geometry"/>
                </mxCell>
                <mxCell id="167" value="Read&lt;br&gt;the&lt;br&gt;Docs" style="verticalLabelPosition=bottom;html=1;verticalAlign=top;align=center;strokeColor=none;fillColor=#00BEF2;shape=mxgraph.azure.file;pointerEvents=1;labelBackgroundColor=none;" vertex="1" parent="1">
                    <mxGeometry x="40" y="280" width="38" height="40" as="geometry"/>
                </mxCell>
                <mxCell id="181" style="edgeStyle=orthogonalEdgeStyle;rounded=0;orthogonalLoop=1;jettySize=auto;html=1;" edge="1" parent="1" source="168" target="194">
                    <mxGeometry relative="1" as="geometry">
                        <mxPoint x="310" y="360" as="targetPoint"/>
                    </mxGeometry>
                </mxCell>
                <mxCell id="168" value="Install&lt;br&gt;Dependencies" style="pointerEvents=1;shadow=0;dashed=0;html=1;strokeColor=#00BEF2;fillColor=#1ba1e2;labelPosition=center;verticalLabelPosition=bottom;verticalAlign=top;outlineConnect=0;align=center;shape=mxgraph.office.concepts.install;labelBackgroundColor=none;fontColor=#ffffff;" vertex="1" parent="1">
                    <mxGeometry x="230.19" y="279" width="39.81" height="46" as="geometry"/>
                </mxCell>
                <mxCell id="200" style="edgeStyle=orthogonalEdgeStyle;rounded=0;orthogonalLoop=1;jettySize=auto;html=1;" edge="1" parent="1" source="171" target="197">
                    <mxGeometry relative="1" as="geometry"/>
                </mxCell>
                <mxCell id="171" value="Run&lt;br&gt;Scripts" style="verticalLabelPosition=bottom;html=1;verticalAlign=top;align=center;strokeColor=none;fillColor=#00BEF2;shape=mxgraph.azure.script_file;pointerEvents=1;labelBackgroundColor=none;" vertex="1" parent="1">
                    <mxGeometry x="435.53" y="280" width="38" height="40" as="geometry"/>
                </mxCell>
                <mxCell id="174" value="View&lt;br&gt;with&lt;br&gt;WebBrowser" style="pointerEvents=1;shadow=0;dashed=0;html=1;strokeColor=#00BEF2;fillColor=#1ba1e2;aspect=fixed;labelPosition=center;verticalLabelPosition=bottom;verticalAlign=top;align=center;outlineConnect=0;shape=mxgraph.vvd.web_browser;labelBackgroundColor=none;fontColor=#ffffff;strokeWidth=1;" vertex="1" parent="1">
                    <mxGeometry x="724.27" y="279" width="50" height="35.5" as="geometry"/>
                </mxCell>
                <mxCell id="179" style="edgeStyle=orthogonalEdgeStyle;rounded=0;orthogonalLoop=1;jettySize=auto;html=1;entryX=0.025;entryY=0.457;entryDx=0;entryDy=0;entryPerimeter=0;" edge="1" parent="1" source="176" target="168">
                    <mxGeometry relative="1" as="geometry"/>
                </mxCell>
                <mxCell id="182" style="edgeStyle=orthogonalEdgeStyle;rounded=0;orthogonalLoop=1;jettySize=auto;html=1;entryX=0;entryY=0.5;entryDx=0;entryDy=0;entryPerimeter=0;exitX=0.96;exitY=0.6;exitDx=0;exitDy=0;exitPerimeter=0;" edge="1" parent="1" source="194" target="171">
                    <mxGeometry relative="1" as="geometry">
                        <mxPoint x="400" y="270" as="sourcePoint"/>
                    </mxGeometry>
                </mxCell>
                <mxCell id="187" value="Y" style="edgeStyle=orthogonalEdgeStyle;rounded=0;orthogonalLoop=1;jettySize=auto;html=1;entryX=-0.005;entryY=0.592;entryDx=0;entryDy=0;entryPerimeter=0;" edge="1" parent="1" source="185" target="174">
                    <mxGeometry relative="1" as="geometry"/>
                </mxCell>
                <mxCell id="205" value="N" style="edgeStyle=orthogonalEdgeStyle;rounded=0;orthogonalLoop=1;jettySize=auto;html=1;entryX=0.5;entryY=1;entryDx=0;entryDy=0;exitX=0.5;exitY=1;exitDx=0;exitDy=0;" edge="1" parent="1" source="185" target="198">
                    <mxGeometry x="0.0723" relative="1" as="geometry">
                        <mxPoint x="646.665" y="403.75" as="targetPoint"/>
                        <mxPoint as="offset"/>
                    </mxGeometry>
                </mxCell>
                <mxCell id="185" value="WebApp?" style="rhombus;whiteSpace=wrap;html=1;labelBackgroundColor=none;strokeColor=#00BEF2;strokeWidth=2;fillColor=none;gradientColor=none;" vertex="1" parent="1">
                    <mxGeometry x="608.12" y="276.25" width="77.09" height="47.5" as="geometry"/>
                </mxCell>
                <mxCell id="192" value="" style="group" vertex="1" connectable="0" parent="1">
                    <mxGeometry x="132.82" y="275" width="50" height="68.75" as="geometry"/>
                </mxCell>
                <mxCell id="176" value="" style="outlineConnect=0;fontColor=#232F3E;gradientColor=none;gradientDirection=north;fillColor=none;strokeColor=#00BEF2;dashed=0;verticalLabelPosition=bottom;verticalAlign=top;align=center;html=1;fontSize=12;fontStyle=0;aspect=fixed;shape=mxgraph.aws4.resourceIcon;resIcon=mxgraph.aws4.command_line_interface;labelBackgroundColor=none;" vertex="1" parent="192">
                    <mxGeometry width="50" height="50" as="geometry"/>
                </mxCell>
                <mxCell id="191" value="Terminal" style="text;html=1;strokeColor=none;fillColor=none;align=center;verticalAlign=middle;whiteSpace=wrap;rounded=0;labelBackgroundColor=none;" vertex="1" parent="192">
                    <mxGeometry x="5" y="48.75" width="40" height="20" as="geometry"/>
                </mxCell>
                <mxCell id="193" value="" style="group" vertex="1" connectable="0" parent="1">
                    <mxGeometry x="330" y="270" width="50" height="68.75" as="geometry"/>
                </mxCell>
                <mxCell id="194" value="" style="outlineConnect=0;fontColor=#232F3E;gradientColor=none;gradientDirection=north;fillColor=none;strokeColor=#00BEF2;dashed=0;verticalLabelPosition=bottom;verticalAlign=top;align=center;html=1;fontSize=12;fontStyle=0;aspect=fixed;shape=mxgraph.aws4.resourceIcon;resIcon=mxgraph.aws4.command_line_interface;labelBackgroundColor=none;strokeWidth=2;" vertex="1" parent="193">
                    <mxGeometry width="50" height="50" as="geometry"/>
                </mxCell>
                <mxCell id="195" value="Terminal" style="text;html=1;strokeColor=none;fillColor=none;align=center;verticalAlign=middle;whiteSpace=wrap;rounded=0;labelBackgroundColor=none;" vertex="1" parent="193">
                    <mxGeometry x="5" y="48.75" width="40" height="20" as="geometry"/>
                </mxCell>
                <mxCell id="196" value="" style="group" vertex="1" connectable="0" parent="1">
                    <mxGeometry x="520" y="275" width="50" height="68.75" as="geometry"/>
                </mxCell>
                <mxCell id="197" value="" style="outlineConnect=0;fontColor=#232F3E;gradientColor=none;gradientDirection=north;fillColor=none;strokeColor=#00BEF2;verticalLabelPosition=bottom;verticalAlign=top;align=center;html=1;fontSize=12;fontStyle=0;aspect=fixed;shape=mxgraph.aws4.resourceIcon;resIcon=mxgraph.aws4.command_line_interface;labelBackgroundColor=none;" vertex="1" parent="196">
                    <mxGeometry width="50" height="50" as="geometry"/>
                </mxCell>
                <mxCell id="198" value="Terminal" style="text;html=1;strokeColor=none;fillColor=none;align=center;verticalAlign=middle;whiteSpace=wrap;rounded=0;labelBackgroundColor=none;" vertex="1" parent="196">
                    <mxGeometry x="5" y="48.75" width="40" height="20" as="geometry"/>
                </mxCell>
                <mxCell id="201" value="" style="edgeStyle=orthogonalEdgeStyle;rounded=0;orthogonalLoop=1;jettySize=auto;html=1;" edge="1" parent="1" source="197" target="185">
                    <mxGeometry relative="1" as="geometry"/>
                </mxCell>
                <mxCell id="206" value="&lt;font size=&quot;1&quot;&gt;&lt;b&gt;&lt;u style=&quot;font-size: 20px&quot;&gt;Editing the Code&lt;/u&gt;&lt;/b&gt;&lt;/font&gt;" style="text;html=1;strokeColor=none;fillColor=none;align=left;verticalAlign=middle;whiteSpace=wrap;rounded=0;" vertex="1" parent="1">
                    <mxGeometry x="40" y="400" width="280" height="20" as="geometry"/>
                </mxCell>
                <mxCell id="210" value="" style="group;strokeWidth=1;" vertex="1" connectable="0" parent="1">
                    <mxGeometry x="337.37" y="122" width="43.60000000000002" height="50.920000000000016" as="geometry"/>
                </mxCell>
                <mxCell id="29" value="&lt;span style=&quot;font-size: 11px&quot;&gt;Checkout&lt;/span&gt;&lt;br style=&quot;font-size: 11px&quot;&gt;&lt;span style=&quot;font-size: 11px&quot;&gt;(Download)&lt;/span&gt;&lt;br style=&quot;font-size: 11px&quot;&gt;&lt;span style=&quot;font-size: 11px&quot;&gt;Code&lt;/span&gt;" style="html=1;verticalLabelPosition=bottom;align=center;labelBackgroundColor=none;verticalAlign=top;strokeWidth=2;strokeColor=#00BEF2;shadow=0;dashed=0;shape=mxgraph.ios7.icons.down;fillColor=none;" vertex="1" parent="210">
                    <mxGeometry y="10.920000000000016" width="32.94" height="40" as="geometry"/>
                </mxCell>
                <mxCell id="209" value="" style="verticalLabelPosition=bottom;html=1;verticalAlign=top;align=center;strokeColor=none;fillColor=#00BEF2;shape=mxgraph.azure.git_repository;labelBackgroundColor=none;" vertex="1" parent="210">
                    <mxGeometry x="12.600000000000023" width="30" height="30" as="geometry"/>
                </mxCell>
                <mxCell id="211" value="" style="group" vertex="1" connectable="0" parent="1">
                    <mxGeometry x="136.01999999999998" y="434.08" width="43.60000000000002" height="50.920000000000016" as="geometry"/>
                </mxCell>
                <mxCell id="212" value="&lt;span style=&quot;font-size: 11px&quot;&gt;Checkout&lt;/span&gt;&lt;br style=&quot;font-size: 11px&quot;&gt;&lt;span style=&quot;font-size: 11px&quot;&gt;(Download)&lt;/span&gt;&lt;br style=&quot;font-size: 11px&quot;&gt;&lt;span style=&quot;font-size: 11px&quot;&gt;Code&lt;/span&gt;" style="html=1;verticalLabelPosition=bottom;align=center;labelBackgroundColor=none;verticalAlign=top;strokeWidth=2;strokeColor=#00BEF2;shadow=0;dashed=0;shape=mxgraph.ios7.icons.down;fillColor=none;" vertex="1" parent="211">
                    <mxGeometry y="10.920000000000016" width="32.94" height="40" as="geometry"/>
                </mxCell>
                <mxCell id="213" value="" style="verticalLabelPosition=bottom;html=1;verticalAlign=top;align=center;strokeColor=none;fillColor=#00BEF2;shape=mxgraph.azure.git_repository;labelBackgroundColor=none;" vertex="1" parent="211">
                    <mxGeometry x="12.600000000000023" width="30" height="30" as="geometry"/>
                </mxCell>
                <mxCell id="216" style="edgeStyle=orthogonalEdgeStyle;rounded=0;orthogonalLoop=1;jettySize=auto;html=1;entryX=0;entryY=0.5;entryDx=0;entryDy=0;entryPerimeter=0;" edge="1" parent="1" target="120">
                    <mxGeometry relative="1" as="geometry">
                        <mxPoint x="174" y="470" as="sourcePoint"/>
                    </mxGeometry>
                </mxCell>
                <mxCell id="217" value="" style="group" vertex="1" connectable="0" parent="1">
                    <mxGeometry x="429.53" y="434.08" width="50" height="75" as="geometry"/>
                </mxCell>
                <mxCell id="218" value="" style="group" vertex="1" connectable="0" parent="217">
                    <mxGeometry width="50" height="50" as="geometry"/>
                </mxCell>
                <mxCell id="219" value="" style="group" vertex="1" connectable="0" parent="218">
                    <mxGeometry width="50" height="50" as="geometry"/>
                </mxCell>
                <mxCell id="220" value="" style="ellipse;whiteSpace=wrap;html=1;aspect=fixed;strokeColor=#00BEF2;fillColor=none;strokeWidth=2;" vertex="1" parent="219">
                    <mxGeometry width="50" height="50" as="geometry"/>
                </mxCell>
                <mxCell id="221" value="" style="dashed=0;aspect=fixed;verticalLabelPosition=bottom;verticalAlign=top;align=center;shape=mxgraph.gmdl.edit;strokeColor=none;fillColor=#00BEF2;shadow=0;" vertex="1" parent="219">
                    <mxGeometry x="8.333333333333371" y="8.333333333333343" width="33.333333333333336" height="33.333333333333336" as="geometry"/>
                </mxCell>
                <mxCell id="222" value="Edit&lt;br&gt;Code" style="text;html=1;strokeColor=none;fillColor=none;align=center;verticalAlign=middle;whiteSpace=wrap;rounded=0;" vertex="1" parent="217">
                    <mxGeometry x="5" y="55" width="40" height="20" as="geometry"/>
                </mxCell>
                <mxCell id="223" value="" style="group" vertex="1" connectable="0" parent="1">
                    <mxGeometry x="515.83" y="440.33" width="58.34" height="80" as="geometry"/>
                </mxCell>
                <mxCell id="224" value="" style="triangle;whiteSpace=wrap;html=1;strokeColor=#00BEF2;fillColor=none;direction=north;strokeWidth=2;" vertex="1" parent="223">
                    <mxGeometry width="58.34" height="55" as="geometry"/>
                </mxCell>
                <mxCell id="225" value="" style="html=1;aspect=fixed;strokeColor=#00BEF2;shadow=0;align=center;verticalAlign=top;fillColor=#1ba1e2;shape=mxgraph.gcp2.biomedical_test_tube;fontColor=#ffffff;" vertex="1" parent="223">
                    <mxGeometry x="22.919999999999987" y="15" width="10.85" height="35" as="geometry"/>
                </mxCell>
                <mxCell id="226" value="Run&lt;br&gt;Tests" style="text;html=1;strokeColor=none;fillColor=none;align=center;verticalAlign=middle;whiteSpace=wrap;rounded=0;" vertex="1" parent="223">
                    <mxGeometry x="9.170000000000016" y="60" width="40" height="20" as="geometry"/>
                </mxCell>
                <mxCell id="227" value="" style="group" vertex="1" connectable="0" parent="1">
                    <mxGeometry x="617.49" y="440.33" width="55" height="72.5" as="geometry"/>
                </mxCell>
                <mxCell id="228" value="" style="verticalLabelPosition=bottom;html=1;verticalAlign=top;align=center;strokeColor=none;fillColor=#00BEF2;shape=mxgraph.azure.git_repository;" vertex="1" parent="227">
                    <mxGeometry x="2.5" width="50" height="50" as="geometry"/>
                </mxCell>
                <mxCell id="229" value="Commit" style="text;html=1;strokeColor=none;fillColor=none;align=center;verticalAlign=middle;whiteSpace=wrap;rounded=0;" vertex="1" parent="227">
                    <mxGeometry y="52.5" width="55" height="20" as="geometry"/>
                </mxCell>
                <mxCell id="230" style="edgeStyle=orthogonalEdgeStyle;rounded=0;orthogonalLoop=1;jettySize=auto;html=1;exitX=0.5;exitY=1;exitDx=0;exitDy=0;entryX=0.5;entryY=1;entryDx=0;entryDy=0;" edge="1" source="229" target="235" parent="1">
                    <mxGeometry relative="1" as="geometry">
                        <Array as="points">
                            <mxPoint x="645" y="560"/>
                            <mxPoint x="355" y="560"/>
                        </Array>
                    </mxGeometry>
                </mxCell>
                <mxCell id="232" value="" style="group" vertex="1" connectable="0" parent="1">
                    <mxGeometry x="325.83" y="441.58" width="58.34" height="80" as="geometry"/>
                </mxCell>
                <mxCell id="233" value="" style="triangle;whiteSpace=wrap;html=1;strokeColor=#00BEF2;fillColor=none;direction=north;strokeWidth=2;" vertex="1" parent="232">
                    <mxGeometry width="58.34" height="55" as="geometry"/>
                </mxCell>
                <mxCell id="234" value="" style="html=1;aspect=fixed;strokeColor=#00BEF2;shadow=0;align=center;verticalAlign=top;fillColor=#1ba1e2;shape=mxgraph.gcp2.biomedical_test_tube;fontColor=#ffffff;" vertex="1" parent="232">
                    <mxGeometry x="22.92" y="15" width="10.85" height="35" as="geometry"/>
                </mxCell>
                <mxCell id="235" value="Write&lt;br&gt;Tests" style="text;html=1;strokeColor=none;fillColor=none;align=center;verticalAlign=middle;whiteSpace=wrap;rounded=0;" vertex="1" parent="232">
                    <mxGeometry x="9.170000000000016" y="60" width="40" height="20" as="geometry"/>
                </mxCell>
                <mxCell id="236" style="edgeStyle=orthogonalEdgeStyle;rounded=0;orthogonalLoop=1;jettySize=auto;html=1;entryX=0;entryY=0.5;entryDx=0;entryDy=0;" edge="1" source="233" target="220" parent="1">
                    <mxGeometry relative="1" as="geometry">
                        <Array as="points">
                            <mxPoint x="400" y="471"/>
                            <mxPoint x="400" y="459"/>
                        </Array>
                    </mxGeometry>
                </mxCell>
                <mxCell id="237" style="edgeStyle=orthogonalEdgeStyle;rounded=0;orthogonalLoop=1;jettySize=auto;html=1;entryX=0.5;entryY=1;entryDx=0;entryDy=0;exitX=0.5;exitY=1;exitDx=0;exitDy=0;" edge="1" source="226" target="222" parent="1">
                    <mxGeometry relative="1" as="geometry"/>
                </mxCell>
                <mxCell id="238" style="edgeStyle=orthogonalEdgeStyle;rounded=0;orthogonalLoop=1;jettySize=auto;html=1;exitX=1;exitY=0.4;exitDx=0;exitDy=0;exitPerimeter=0;" edge="1" source="220" parent="1">
                    <mxGeometry relative="1" as="geometry">
                        <mxPoint x="569" y="412.83" as="sourcePoint"/>
                        <mxPoint x="530" y="471" as="targetPoint"/>
                        <Array as="points">
                            <mxPoint x="500" y="454"/>
                            <mxPoint x="500" y="471"/>
                        </Array>
                    </mxGeometry>
                </mxCell>
                <mxCell id="241" style="edgeStyle=orthogonalEdgeStyle;rounded=0;orthogonalLoop=1;jettySize=auto;html=1;entryX=0;entryY=0.5;entryDx=0;entryDy=0;entryPerimeter=0;" edge="1" target="228" parent="1">
                    <mxGeometry relative="1" as="geometry">
                        <mxPoint x="560" y="465" as="sourcePoint"/>
                        <Array as="points">
                            <mxPoint x="600" y="465"/>
                        </Array>
                    </mxGeometry>
                </mxCell>
                <mxCell id="242" style="edgeStyle=orthogonalEdgeStyle;rounded=0;orthogonalLoop=1;jettySize=auto;html=1;exitX=1;exitY=0.5;exitDx=0;exitDy=0;exitPerimeter=0;" edge="1" parent="1" source="120" target="233">
                    <mxGeometry relative="1" as="geometry"/>
                </mxCell>
                <mxCell id="245" value="" style="group" vertex="1" connectable="0" parent="1">
                    <mxGeometry x="727.99" y="431.54" width="42.549999999999955" height="56" as="geometry"/>
                </mxCell>
                <mxCell id="231" value="Push&lt;br&gt;Code" style="html=1;verticalLabelPosition=bottom;align=center;labelBackgroundColor=none;verticalAlign=top;strokeWidth=2;strokeColor=#00BEF2;shadow=0;dashed=0;shape=mxgraph.ios7.icons.up;fillColor=none;" vertex="1" parent="245">
                    <mxGeometry y="16.79000000000002" width="32.29" height="39.21" as="geometry"/>
                </mxCell>
                <mxCell id="243" value="" style="verticalLabelPosition=bottom;html=1;verticalAlign=top;align=center;strokeColor=none;fillColor=#00BEF2;shape=mxgraph.azure.git_repository;labelBackgroundColor=none;" vertex="1" parent="245">
                    <mxGeometry x="14.549999999999955" width="28" height="28" as="geometry"/>
                </mxCell>
                <mxCell id="246" style="edgeStyle=orthogonalEdgeStyle;rounded=0;orthogonalLoop=1;jettySize=auto;html=1;exitX=1;exitY=0.5;exitDx=0;exitDy=0;exitPerimeter=0;entryX=-0.073;entryY=0.531;entryDx=0;entryDy=0;entryPerimeter=0;" edge="1" parent="1" source="228" target="231">
                    <mxGeometry relative="1" as="geometry"/>
                </mxCell>
                <mxCell id="251" value="" style="group" vertex="1" connectable="0" parent="1">
                    <mxGeometry x="34.59" y="650" width="49" height="70" as="geometry"/>
                </mxCell>
                <mxCell id="247" value="" style="verticalLabelPosition=bottom;html=1;verticalAlign=top;align=center;strokeColor=none;fillColor=#00BEF2;shape=mxgraph.azure.file_2;pointerEvents=1;labelBackgroundColor=none;" vertex="1" parent="251">
                    <mxGeometry x="4.479999999999997" width="38" height="40" as="geometry"/>
                </mxCell>
                <mxCell id="248" value="Review&lt;br&gt;Changes" style="text;html=1;strokeColor=none;fillColor=none;align=center;verticalAlign=middle;whiteSpace=wrap;rounded=0;labelBackgroundColor=none;" vertex="1" parent="251">
                    <mxGeometry y="50" width="49" height="20" as="geometry"/>
                </mxCell>
                <mxCell id="252" value="" style="group" vertex="1" connectable="0" parent="1">
                    <mxGeometry x="129.61999999999998" y="645" width="50" height="75" as="geometry"/>
                </mxCell>
                <mxCell id="253" value="" style="verticalLabelPosition=bottom;html=1;verticalAlign=top;align=center;strokeColor=none;fillColor=#00BEF2;shape=mxgraph.azure.github_code;pointerEvents=1;" vertex="1" parent="252">
                    <mxGeometry x="7.105427357601002e-15" width="50.000000000000014" height="50" as="geometry"/>
                </mxCell>
                <mxCell id="254" value="Your&lt;br&gt;Copy" style="text;html=1;strokeColor=none;fillColor=none;align=center;verticalAlign=middle;whiteSpace=wrap;rounded=0;labelBackgroundColor=none;" vertex="1" parent="252">
                    <mxGeometry x="5.000000000000057" y="53.75" width="40.00000000000001" height="20" as="geometry"/>
                </mxCell>
                <mxCell id="255" style="edgeStyle=orthogonalEdgeStyle;rounded=0;orthogonalLoop=1;jettySize=auto;html=1;exitX=1;exitY=0.5;exitDx=0;exitDy=0;exitPerimeter=0;entryX=0;entryY=0.5;entryDx=0;entryDy=0;entryPerimeter=0;" edge="1" parent="1" source="247" target="253">
                    <mxGeometry relative="1" as="geometry"/>
                </mxCell>
                <mxCell id="260" value="" style="group" vertex="1" connectable="0" parent="1">
                    <mxGeometry x="219.99999999999997" y="645" width="52.5" height="90" as="geometry"/>
                </mxCell>
                <mxCell id="261" value="" style="verticalLabelPosition=bottom;html=1;verticalAlign=top;align=center;strokeColor=none;fillColor=#00BEF2;shape=mxgraph.azure.github_code;pointerEvents=1;" vertex="1" parent="260">
                    <mxGeometry x="7.105427357601002e-15" width="50.000000000000014" height="50" as="geometry"/>
                </mxCell>
                <mxCell id="262" value="Create&lt;br&gt;Merge&lt;br&gt;Request" style="text;html=1;strokeColor=none;fillColor=none;align=center;verticalAlign=middle;whiteSpace=wrap;rounded=0;labelBackgroundColor=none;" vertex="1" parent="260">
                    <mxGeometry x="-2.5" y="55" width="55" height="35" as="geometry"/>
                </mxCell>
                <mxCell id="263" style="edgeStyle=orthogonalEdgeStyle;rounded=0;orthogonalLoop=1;jettySize=auto;html=1;exitX=1;exitY=0.5;exitDx=0;exitDy=0;exitPerimeter=0;entryX=0;entryY=0.5;entryDx=0;entryDy=0;entryPerimeter=0;" edge="1" parent="1" source="253" target="261">
                    <mxGeometry relative="1" as="geometry"/>
                </mxCell>
                <mxCell id="264" value="" style="group" vertex="1" connectable="0" parent="1">
                    <mxGeometry x="429.53" y="645" width="50" height="75" as="geometry"/>
                </mxCell>
                <mxCell id="265" value="" style="group" vertex="1" connectable="0" parent="264">
                    <mxGeometry width="50" height="50" as="geometry"/>
                </mxCell>
                <mxCell id="266" value="" style="group" vertex="1" connectable="0" parent="265">
                    <mxGeometry width="50" height="50" as="geometry"/>
                </mxCell>
                <mxCell id="267" value="" style="ellipse;whiteSpace=wrap;html=1;aspect=fixed;strokeColor=#00BEF2;fillColor=none;strokeWidth=2;" vertex="1" parent="266">
                    <mxGeometry width="50" height="50" as="geometry"/>
                </mxCell>
                <mxCell id="268" value="" style="dashed=0;aspect=fixed;verticalLabelPosition=bottom;verticalAlign=top;align=center;shape=mxgraph.gmdl.edit;strokeColor=none;fillColor=#00BEF2;shadow=0;" vertex="1" parent="266">
                    <mxGeometry x="8.333333333333371" y="8.333333333333343" width="33.333333333333336" height="33.333333333333336" as="geometry"/>
                </mxCell>
                <mxCell id="269" value="Edit&lt;br&gt;Code" style="text;html=1;strokeColor=none;fillColor=none;align=center;verticalAlign=middle;whiteSpace=wrap;rounded=0;" vertex="1" parent="264">
                    <mxGeometry x="5" y="55" width="40" height="20" as="geometry"/>
                </mxCell>
                <mxCell id="270" value="" style="group" vertex="1" connectable="0" parent="1">
                    <mxGeometry x="515.83" y="645.04" width="58.34" height="80" as="geometry"/>
                </mxCell>
                <mxCell id="271" value="" style="triangle;whiteSpace=wrap;html=1;strokeColor=#00BEF2;fillColor=none;direction=north;strokeWidth=2;" vertex="1" parent="270">
                    <mxGeometry width="58.34" height="55" as="geometry"/>
                </mxCell>
                <mxCell id="272" value="" style="html=1;aspect=fixed;strokeColor=#00BEF2;shadow=0;align=center;verticalAlign=top;fillColor=#1ba1e2;shape=mxgraph.gcp2.biomedical_test_tube;fontColor=#ffffff;" vertex="1" parent="270">
                    <mxGeometry x="22.919999999999987" y="15" width="10.85" height="35" as="geometry"/>
                </mxCell>
                <mxCell id="273" value="Run&lt;br&gt;Tests" style="text;html=1;strokeColor=none;fillColor=none;align=center;verticalAlign=middle;whiteSpace=wrap;rounded=0;" vertex="1" parent="270">
                    <mxGeometry x="9.170000000000016" y="60" width="40" height="20" as="geometry"/>
                </mxCell>
                <mxCell id="274" value="" style="group" vertex="1" connectable="0" parent="1">
                    <mxGeometry x="617.49" y="648.79" width="55" height="72.5" as="geometry"/>
                </mxCell>
                <mxCell id="275" value="" style="verticalLabelPosition=bottom;html=1;verticalAlign=top;align=center;strokeColor=none;fillColor=#00BEF2;shape=mxgraph.azure.git_repository;" vertex="1" parent="274">
                    <mxGeometry x="2.5" width="50" height="50" as="geometry"/>
                </mxCell>
                <mxCell id="276" value="Commit" style="text;html=1;strokeColor=none;fillColor=none;align=center;verticalAlign=middle;whiteSpace=wrap;rounded=0;" vertex="1" parent="274">
                    <mxGeometry y="52.5" width="55" height="20" as="geometry"/>
                </mxCell>
                <mxCell id="277" style="edgeStyle=orthogonalEdgeStyle;rounded=0;orthogonalLoop=1;jettySize=auto;html=1;entryX=0.5;entryY=1;entryDx=0;entryDy=0;exitX=0.5;exitY=1;exitDx=0;exitDy=0;" edge="1" source="273" target="269" parent="1">
                    <mxGeometry relative="1" as="geometry"/>
                </mxCell>
                <mxCell id="278" style="edgeStyle=orthogonalEdgeStyle;rounded=0;orthogonalLoop=1;jettySize=auto;html=1;exitX=1;exitY=0.4;exitDx=0;exitDy=0;exitPerimeter=0;" edge="1" source="267" parent="1" target="271">
                    <mxGeometry relative="1" as="geometry">
                        <mxPoint x="579.47" y="621.29" as="sourcePoint"/>
                        <mxPoint x="520" y="679" as="targetPoint"/>
                        <Array as="points">
                            <mxPoint x="500" y="665"/>
                            <mxPoint x="500" y="679"/>
                        </Array>
                    </mxGeometry>
                </mxCell>
                <mxCell id="279" style="edgeStyle=orthogonalEdgeStyle;rounded=0;orthogonalLoop=1;jettySize=auto;html=1;entryX=0;entryY=0.5;entryDx=0;entryDy=0;entryPerimeter=0;" edge="1" target="275" parent="1">
                    <mxGeometry relative="1" as="geometry">
                        <mxPoint x="560" y="674" as="sourcePoint"/>
                        <Array as="points">
                            <mxPoint x="610" y="673"/>
                            <mxPoint x="610" y="674"/>
                        </Array>
                    </mxGeometry>
                </mxCell>
                <mxCell id="280" value="" style="group" vertex="1" connectable="0" parent="1">
                    <mxGeometry x="725.98" y="640" width="42.549999999999955" height="56" as="geometry"/>
                </mxCell>
                <mxCell id="281" value="Push&lt;br&gt;Code" style="html=1;verticalLabelPosition=bottom;align=center;labelBackgroundColor=none;verticalAlign=top;strokeWidth=2;strokeColor=#00BEF2;shadow=0;dashed=0;shape=mxgraph.ios7.icons.up;fillColor=none;" vertex="1" parent="280">
                    <mxGeometry y="16.79000000000002" width="32.29" height="39.21" as="geometry"/>
                </mxCell>
                <mxCell id="282" value="" style="verticalLabelPosition=bottom;html=1;verticalAlign=top;align=center;strokeColor=none;fillColor=#00BEF2;shape=mxgraph.azure.git_repository;labelBackgroundColor=none;" vertex="1" parent="280">
                    <mxGeometry x="14.549999999999955" width="28" height="28" as="geometry"/>
                </mxCell>
                <mxCell id="283" style="edgeStyle=orthogonalEdgeStyle;rounded=0;orthogonalLoop=1;jettySize=auto;html=1;exitX=1;exitY=0.5;exitDx=0;exitDy=0;exitPerimeter=0;entryX=-0.073;entryY=0.531;entryDx=0;entryDy=0;entryPerimeter=0;" edge="1" source="275" target="281" parent="1">
                    <mxGeometry relative="1" as="geometry"/>
                </mxCell>
                <mxCell id="286" value="" style="group" vertex="1" connectable="0" parent="1">
                    <mxGeometry x="314.74" y="650" width="72.18" height="70" as="geometry"/>
                </mxCell>
                <mxCell id="284" value="" style="html=1;verticalLabelPosition=bottom;align=center;labelBackgroundColor=#ffffff;verticalAlign=top;strokeWidth=2;strokeColor=#00BEF2;shadow=0;dashed=0;shape=mxgraph.ios7.icons.message;fillColor=none;gradientColor=none;" vertex="1" parent="286">
                    <mxGeometry x="3.079999999999984" width="66.02" height="41.21" as="geometry"/>
                </mxCell>
                <mxCell id="285" value="Get&lt;br&gt;Suggestions" style="text;html=1;strokeColor=none;fillColor=none;align=center;verticalAlign=middle;whiteSpace=wrap;rounded=0;labelBackgroundColor=none;" vertex="1" parent="286">
                    <mxGeometry y="41.210000000000036" width="72.18" height="28.79" as="geometry"/>
                </mxCell>
                <mxCell id="287" style="edgeStyle=orthogonalEdgeStyle;rounded=0;orthogonalLoop=1;jettySize=auto;html=1;exitX=1;exitY=0.5;exitDx=0;exitDy=0;exitPerimeter=0;entryX=-0.058;entryY=0.485;entryDx=0;entryDy=0;entryPerimeter=0;" edge="1" parent="1" source="261" target="284">
                    <mxGeometry relative="1" as="geometry"/>
                </mxCell>
                <mxCell id="296" style="edgeStyle=orthogonalEdgeStyle;rounded=0;orthogonalLoop=1;jettySize=auto;html=1;entryX=-0.075;entryY=0.362;entryDx=0;entryDy=0;entryPerimeter=0;" edge="1" parent="1" target="294">
                    <mxGeometry relative="1" as="geometry">
                        <mxPoint x="374" y="778" as="sourcePoint"/>
                        <Array as="points">
                            <mxPoint x="374" y="778"/>
                        </Array>
                    </mxGeometry>
                </mxCell>
                <mxCell id="297" value="Merge" style="edgeLabel;html=1;align=center;verticalAlign=middle;resizable=0;points=[];" vertex="1" connectable="0" parent="296">
                    <mxGeometry x="-0.0991" y="-2" relative="1" as="geometry">
                        <mxPoint x="1.23" y="-0.05" as="offset"/>
                    </mxGeometry>
                </mxCell>
                <mxCell id="288" value="" style="html=1;aspect=fixed;strokeColor=none;shadow=0;align=center;verticalAlign=top;fillColor=#00BEF2;shape=mxgraph.gcp2.check;labelBackgroundColor=none;" vertex="1" parent="1">
                    <mxGeometry x="324.17" y="760" width="50" height="40" as="geometry"/>
                </mxCell>
                <mxCell id="289" value="Get&lt;br&gt;Approval" style="text;html=1;strokeColor=none;fillColor=none;align=center;verticalAlign=middle;whiteSpace=wrap;rounded=0;labelBackgroundColor=none;" vertex="1" parent="1">
                    <mxGeometry x="323.74" y="810" width="54.17" height="20" as="geometry"/>
                </mxCell>
                <mxCell id="290" style="edgeStyle=orthogonalEdgeStyle;rounded=0;orthogonalLoop=1;jettySize=auto;html=1;entryX=0;entryY=0.5;entryDx=0;entryDy=0;" edge="1" parent="1" target="267">
                    <mxGeometry relative="1" as="geometry">
                        <mxPoint x="384" y="670" as="sourcePoint"/>
                    </mxGeometry>
                </mxCell>
                <mxCell id="291" style="edgeStyle=orthogonalEdgeStyle;rounded=0;orthogonalLoop=1;jettySize=auto;html=1;entryX=0.455;entryY=-0.008;entryDx=0;entryDy=0;entryPerimeter=0;" edge="1" parent="1" source="281" target="284">
                    <mxGeometry relative="1" as="geometry">
                        <Array as="points">
                            <mxPoint x="742" y="630"/>
                            <mxPoint x="348" y="630"/>
                        </Array>
                    </mxGeometry>
                </mxCell>
                <mxCell id="292" style="edgeStyle=orthogonalEdgeStyle;rounded=0;orthogonalLoop=1;jettySize=auto;html=1;" edge="1" parent="1" target="288">
                    <mxGeometry relative="1" as="geometry">
                        <mxPoint x="349" y="721" as="sourcePoint"/>
                        <Array as="points">
                            <mxPoint x="349" y="730"/>
                            <mxPoint x="349" y="730"/>
                        </Array>
                    </mxGeometry>
                </mxCell>
                <mxCell id="293" value="" style="group" vertex="1" connectable="0" parent="1">
                    <mxGeometry x="710" y="760" width="49.99999999999999" height="75" as="geometry"/>
                </mxCell>
                <mxCell id="294" value="" style="verticalLabelPosition=bottom;html=1;verticalAlign=top;align=center;strokeColor=none;fillColor=#00BEF2;shape=mxgraph.azure.github_code;pointerEvents=1;" vertex="1" parent="293">
                    <mxGeometry width="50" height="50" as="geometry"/>
                </mxCell>
                <mxCell id="295" value="&lt;span&gt;GitHub&lt;/span&gt;&lt;br&gt;&lt;span&gt;Source&lt;/span&gt;" style="text;html=1;strokeColor=none;fillColor=none;align=center;verticalAlign=middle;whiteSpace=wrap;rounded=0;labelBackgroundColor=none;" vertex="1" parent="293">
                    <mxGeometry x="4.999999999999993" y="55" width="40" height="20" as="geometry"/>
                </mxCell>
            </root>
        </mxGraphModel>
    </diagram>
</mxfile>
